#!OML:ASF Y:\EmotionMaleHayes\Project 1\Capture day 1\Session 1\Male1.ASF
:FULLY-SPECIFIED
:DEGREES
1131
root 13.3573 16.1776 16.8044 442.294 81.1004 437.238
lowerback 4.8163 1.74097 -14.1551
upperback 6.56727 2.5375 -3.73935
thorax 3.91827 0.907864 3.90553
lowerneck -22.5241 2.07163 4.97417
upperneck 17.5432 2.00507 -3.46491
head 9.31619 0.879773 -1.72666
rclavicle -7.55382e-015 -1.35174e-014
rhumerus -43.0626 3.74576 -85.6122
rradius 30.2665
rwrist 3.74932
rhand -3.83343 -32.4883
rfingers 7.12502
rthumb 21.9139 -61.2672
lclavicle -7.55382e-015 -1.35174e-014
lhumerus -23.0332 -31.6057 95.84
lradius 49.8107
lwrist 4.39668
lhand -20.5645 -31.6875
lfingers 7.12502
lthumb 5.79482 -1.78673
rfemur -34.0029 -5.07708 7.99263
rtibia 17.5595
rfoot -5.02991 1.20996
rtoes 8.72349
lfemur 17.459 -4.49223 -37.4633
ltibia 7.74385
lfoot -19.4081 -15.2868
ltoes 17.2059
1132
root 13.5057 16.1401 16.8342 444.329 80.8349 439.244
lowerback 4.74993 1.76763 -14.3815
upperback 6.60436 2.58505 -3.66901
thorax 3.98344 0.914984 4.10343
lowerneck -22.3135 2.09191 4.99894
upperneck 17.1191 2.02177 -3.45634
head 9.13256 0.889143 -1.7229
rclavicle -2.34566e-014 4.77083e-015
rhumerus -42.5937 3.75833 -85.3253
rradius 29.7293
rwrist 4.63362
rhand -4.40909 -31.7073
rfingers 7.12502
rthumb 21.3611 -60.5499
lclavicle -2.34566e-014 4.77083e-015
lhumerus -23.3631 -30.6691 95.8702
lradius 48.3579
lwrist 4.03033
lhand -20.7816 -31.6157
lfingers 7.12502
lthumb 5.58523 -1.70928
rfemur -34.5042 -4.0011 7.23417
rtibia 18.9649
rfoot -2.93886 1.71203
rtoes 13.1666
lfemur 17.9615 -4.43539 -37.6106
ltibia 7.77763
lfoot -18.6773 -16.0737
ltoes 19.5718
1133
root 13.6561 16.1061 16.8641 447.217 80.6516 442.141
lowerback 4.83051 1.74405 -14.4887
upperback 6.66159 2.54639 -3.61348
thorax 4.00462 0.888031 4.21926
lowerneck -22.4325 2.09364 5.03391
upperneck 16.9621 1.97504 -3.33981
head 9.09562 0.880457 -1.6936
rclavicle 1.09332e-014 -6.75868e-015
rhumerus -41.9965 3.79564 -85.1227
rradius 29.492
rwrist 5.21648
rhand -4.60215 -31.7444
rfingers 7.12502
rthumb 21.1756 -60.6079
lclavicle 1.09332e-014 -6.75868e-015
lhumerus -23.5959 -29.7133 95.8047
lradius 46.6103
lwrist 3.58287
lhand -21.6035 -31.8082
lfingers 7.12502
lthumb 4.79164 -1.88243
rfemur -35.3365 -3.09228 6.57296
rtibia 21.3751
rfoot -0.803391 1.82886
rtoes 21.3456
lfemur 18.4881 -4.61502 -37.7057
ltibia 7.89317
lfoot -18.0475 -16.8728
ltoes 21.9156
1134
root 13.8026 16.0746 16.8886 450.252 80.6772 445.153
lowerback 4.93136 1.70195 -14.2724
upperback 6.69133 2.47339 -3.50305
thorax 3.98907 0.856972 4.21836
lowerneck -22.7283 1.97316 4.84739
upperneck 17.0105 1.77778 -2.991
head 9.14938 0.813529 -1.57005
rclavicle 5.36719e-015 -3.57812e-015
rhumerus -41.3592 3.6045 -84.7581
rradius 29.4094
rwrist 4.85934
rhand -4.44029 -32.3646
rfingers 7.12502
rthumb 21.3311 -61.2106
lclavicle 5.36719e-015 -3.57812e-015
lhumerus -23.7317 -28.2697 95.7209
lradius 44.6953
lwrist 2.85625
lhand -21.8812 -31.8714
lfingers 7.12502
lthumb 4.52345 -1.93972
rfemur -36.2917 -2.36686 6.2922
rtibia 24.1344
rfoot -0.0174124 1.68847
rtoes 27.7998
lfemur 18.9427 -4.84162 -37.5929
ltibia 8.16967
lfoot -18.1746 -17.2871
ltoes 20.6099
1135
root 13.9454 16.0469 16.9098 452.146 80.662 447.002
lowerback 4.96077 1.66632 -14.1813
upperback 6.75162 2.41939 -3.32057
thorax 4.04004 0.821533 4.36337
lowerneck -22.9431 1.91908 4.53679
upperneck 16.8884 1.71522 -2.64639
head 9.13502 0.800414 -1.40775
rclavicle -1.64991e-014 -7.7526e-014
rhumerus -40.5673 3.44229 -84.2556
rradius 29.1292
rwrist 4.69852
rhand -4.35357 -32.7345
rfingers 7.12502
rthumb 21.4144 -61.571
lclavicle -1.64991e-014 -7.7526e-014
lhumerus -23.7075 -26.2865 95.5732
lradius 42.7164
lwrist 2.0891
lhand -21.4406 -31.499
lfingers 7.12502
lthumb 4.94892 -1.57684
rfemur -37.4487 -1.72328 6.14199
rtibia 27.0785
rfoot -0.795411 1.32861
rtoes 30.6358
lfemur 19.3077 -4.86797 -37.4788
ltibia 8.54639
lfoot -18.6272 -17.3979
ltoes 17.2926
1136
root 14.0983 16.027 16.9285 453.166 80.4909 448.076
lowerback 5.01632 1.66572 -14.23
upperback 6.8473 2.4178 -3.21674
thorax 4.10931 0.80857 4.49907
lowerneck -22.8051 2.02626 4.42067
upperneck 16.4645 1.83884 -2.37221
head 8.96497 0.879717 -1.2749
rclavicle -3.18055e-015 -2.18663e-014
rhumerus -39.7631 3.10195 -83.7449
rradius 28.692
rwrist 5.42613
rhand -4.35379 -32.5885
rfingers 7.12502
rthumb 21.4142 -61.425
lclavicle -3.18055e-015 -2.18663e-014
lhumerus -23.7005 -24.1329 95.2842
lradius 40.6515
lwrist 1.30136
lhand -21.1711 -31.0492
lfingers 7.12502
lthumb 5.20919 -1.13321
rfemur -38.3762 -1.22723 5.92353
rtibia 29.7603
rfoot -2.93884 0.460105
rtoes 24.6468
lfemur 19.8029 -4.79804 -37.5805
ltibia 8.85072
lfoot -18.4447 -17.7635
ltoes 17.2486
1137
root 14.2561 16.0109 16.9526 454.529 80.6323 449.586
lowerback 5.18657 1.69002 -13.8733
upperback 6.90521 2.42758 -3.11064
thorax 4.07115 0.825782 4.41261
lowerneck -23.2867 1.83198 4.67921
upperneck 16.756 1.47462 -2.40951
head 9.13808 0.721487 -1.38191
rclavicle -3.77691e-015 -1.78906e-014
rhumerus -39.0271 2.55565 -83.3052
rradius 28.2005
rwrist 6.25413
rhand -5.11726 -32.2777
rfingers 7.12502
rthumb 20.6807 -61.1958
lclavicle -3.77691e-015 -1.78906e-014
lhumerus -23.7861 -21.8653 94.8617
lradius 38.4516
lwrist 0.330756
lhand -21.2005 -30.8666
lfingers 7.12502
lthumb 5.18075 -0.94994
rfemur -38.9786 -0.705067 6.10268
rtibia 32.0871
rfoot -4.56334 -0.625121
rtoes 18.0905
lfemur 20.4535 -4.86596 -37.322
ltibia 9.07935
lfoot -17.554 -18.2951
ltoes 19.8858
1138
root 14.4085 15.9978 16.9842 456.952 80.949 452.19
lowerback 5.5267 1.63547 -13.4792
upperback 6.92705 2.29244 -2.87802
thorax 3.91803 0.775215 4.43824
lowerneck -22.8584 1.89804 4.64294
upperneck 16.3155 1.53384 -2.13301
head 8.91159 0.777535 -1.27081
rclavicle -2.37548e-014 -8.0309e-014
rhumerus -38.1935 2.2956 -82.9024
rradius 27.8533
rwrist 6.79736
rhand -6.16904 -32.3412
rfingers 7.12502
rthumb 19.6699 -61.3661
lclavicle -2.37548e-014 -8.0309e-014
lhumerus -23.7595 -19.3302 94.3791
lradius 35.8962
lwrist -0.706037
lhand -21.4286 -30.8981
lfingers 7.12502
lthumb 4.96047 -0.976208
rfemur -39.4977 -0.301015 6.526
rtibia 34.324
rfoot -5.61751 -1.77804
rtoes 12.7729
lfemur 21.0777 -5.17682 -36.8043
ltibia 9.41652
lfoot -16.8536 -18.7316
ltoes 20.916
1139
root 14.5605 15.9863 17.0164 459.073 81.2029 454.536
lowerback 5.90013 1.57348 -13.2176
upperback 6.9925 2.14912 -2.61769
thorax 3.79457 0.711627 4.5657
lowerneck -22.947 2.03017 4.67759
upperneck 16.2953 1.66328 -1.97096
head 8.92355 0.85821 -1.20168
rclavicle 1.82882e-014 2.40529e-014
rhumerus -37.0568 2.1436 -82.4912
rradius 27.2397
rwrist 7.36651
rhand -6.48158 -32.4872
rfingers 7.12502
rthumb 19.3694 -61.5426
lclavicle 1.82882e-014 2.40529e-014
lhumerus -23.6223 -16.3419 93.7555
lradius 33.2205
lwrist -1.90098
lhand -21.5228 -30.5641
lfingers 7.12502
lthumb 4.8696 -0.640081
rfemur -39.2129 0.371517 6.83051
rtibia 35.2298
rfoot -5.63527 -1.34098
rtoes 16.508
lfemur 21.6453 -5.48711 -36.3609
ltibia 9.97352
lfoot -16.5254 -19.0318
ltoes 20.0725
